<svg xmlns="http://www.w3.org/2000/svg" width="24" height="24" fill="#ffffff" viewBox="0 0 24 24">
  <path d="M12 0C8.75 0 7.828.037 6.47.62c-1.37.585-2.483 1.698-3.067 3.067C2.705 4.17 2.668 5.093 2.668 8c0 2.907.037 3.828.62 5.186.585 1.37 1.698 2.483 3.067 3.067 1.358.583 2.28.62 5.186.62 2.907 0 3.828-.037 5.186-.62 1.37-.585 2.483-1.698 3.067-3.067.583-1.358.62-2.28.62-5.186 0-2.907-.037-3.828-.62-5.186-.585-1.37-1.698-2.483-3.067-3.067C15.828.037 14.907 0 12 0zm0 3.65c2.617 0 2.923.01 3.96.06c.99.049 1.52.203 1.83.328.45.182.766.452 1.107.794.341.341.611.657.794 1.107.125.31.279.84.328 1.83.05 1.037.06 1.343.06 3.96s-.01 2.923-.06 3.96c-.049.99-.203 1.52-.328 1.83-.182.45-.452.766-.794 1.107-.341.341-.657.611-1.107.794-.31.125-.84.279-1.83.328-1.037.05-1.343.06-3.96.06s-2.923-.01-3.96-.06c-.99-.049-1.52-.203-1.83-.328-.45-.182-.766-.452-1.107-.794-.341-.341-.611-.657-.794-1.107-.125-.31-.279-.84-.328-1.83-.05-1.037-.06-1.343-.06-3.96s.01-2.923.06-3.96c.049-.99.203-1.52.328-1.83.182-.45.452-.766.794-1.107.341-.341.657-.611 1.107-.794.31-.125.84-.279 1.83-.328C9.077 3.66 9.383 3.65 12 3.65zm0 2.45c-2.617 0-4.75 2.133-4.75 4.75s2.133 4.75 4.75 4.75 4.75-2.133 4.75-4.75-2.133-4.75-4.75-4.75zm0 1.9c1.574 0 2.85 1.276 2.85 2.85s-1.276 2.85-2.85 2.85-2.85-1.276-2.85-2.85 1.276-2.85 2.85-2.85z"/>
  <circle cx="18.406" cy="5.594" r="1.44"/>
</svg>
